<svg version="1.1" id="Layer_1" xmlns="http://www.w3.org/2000/svg" xmlns:xlink="http://www.w3.org/1999/xlink" x="0px" y="0px"
	 width="100%" viewBox="0 0 238 198" enable-background="new 0 0 238 198" xml:space="preserve">
<path fill="#FEFDFE" opacity="1.000000" stroke="none" 
	d="
M235.000000,199.000000 
	C161.645767,199.000000 88.291542,199.000000 14.468220,198.531342 
	C13.999416,132.375122 13.999708,66.687561 14.000000,1.000000 
	C87.354225,1.000000 160.708450,1.000000 234.531799,1.462676 
	C235.000610,67.616905 235.000305,133.308456 235.000000,199.000000 
M143.825211,139.732788 
	C145.990646,139.173721 148.156097,138.614670 150.619125,137.472275 
	C144.269836,137.137863 137.920547,136.803452 131.571259,136.469040 
	C131.724518,137.620102 131.877777,138.771164 132.919754,140.023834 
	C134.824951,140.023834 136.730148,140.023834 139.013901,140.023834 
	C139.013901,145.497894 138.886368,150.392212 139.102814,155.271271 
	C139.157501,156.504242 140.310547,157.688507 141.746399,158.783035 
	C142.034378,157.044510 142.493484,155.314163 142.577072,153.565872 
	C142.797012,148.965515 142.853653,144.357346 143.825211,139.732788 
M136.424393,40.050537 
	C130.683762,38.793728 128.082703,40.618217 128.059662,46.287956 
	C127.984695,64.731567 128.056488,83.175743 127.999268,101.619484 
	C127.986458,105.745796 129.609238,108.704155 133.883881,108.638588 
	C138.148758,108.573189 139.659241,105.495949 139.649734,101.443420 
	C139.606812,83.165779 139.714386,64.887100 139.519638,46.611443 
	C139.497833,44.565426 137.902176,42.536186 136.424393,40.050537 
M86.440536,72.499908 
	C86.440994,80.657028 86.395767,88.814491 86.458252,96.971138 
	C86.498672,102.247368 88.763519,105.169128 92.624054,104.882729 
	C97.557716,104.516739 98.135551,101.032143 98.119522,97.012131 
	C98.058472,81.696999 98.052574,66.381271 98.123390,51.066227 
	C98.142090,47.021553 97.431458,43.585129 92.654182,43.079281 
	C88.976746,42.689884 86.507072,45.929001 86.458755,51.024075 
	C86.394035,57.848797 86.441742,64.674583 86.440536,72.499908 
M172.337006,99.473427 
	C178.455933,100.758881 180.857590,99.048561 180.907394,92.945534 
	C181.010361,80.330193 180.942810,67.713440 180.941437,55.097267 
	C180.941025,51.194019 179.821213,48.107677 175.228989,47.932468 
	C171.481247,47.789474 169.282867,50.523010 169.262314,55.453579 
	C169.210419,67.903534 169.135330,80.355827 169.356094,92.802094 
	C169.392944,94.880051 170.868271,96.932487 172.337006,99.473427 
M65.971428,74.497025 
	C65.977203,78.161263 65.944054,81.826080 65.999481,85.489571 
	C66.057243,89.307755 68.126328,91.542839 71.864052,91.480965 
	C75.287270,91.424309 77.542252,89.251785 77.619164,85.777168 
	C77.792343,77.953033 77.808716,70.118713 77.605705,62.295883 
	C77.509636,58.593792 75.206963,56.438896 71.414322,56.584778 
	C67.787933,56.724266 66.093597,59.026031 66.013535,62.511711 
	C65.929413,66.174126 65.979790,69.839622 65.971428,74.497025 
M157.677673,88.405174 
	C158.521988,86.518097 159.987122,84.665543 160.094330,82.737473 
	C160.417007,76.934586 160.235199,71.102150 160.202393,65.281509 
	C160.180496,61.395924 158.498932,58.737629 154.322830,58.830490 
	C150.440674,58.916821 148.817307,61.446785 148.805801,65.138268 
	C148.788177,70.792732 148.721146,76.448357 148.807663,82.101463 
	C148.899521,88.104034 150.680969,89.515450 157.677673,88.405174 
M117.151062,158.246994 
	C120.495094,160.529602 122.221756,159.184921 122.345329,155.600266 
	C122.534386,150.116302 122.448364,144.619690 122.333763,139.131485 
	C122.314232,138.196320 121.568146,137.276337 121.157722,136.349335 
	C120.614418,136.374146 120.071114,136.398972 119.527809,136.423782 
	C119.171890,141.559479 118.815964,146.695160 118.357300,153.313416 
	C116.256371,151.061935 115.118172,149.997681 114.162956,148.788834 
	C111.482513,145.396667 109.006012,141.832870 106.169678,138.580399 
	C105.239037,137.513229 103.207840,136.414612 102.126961,136.754013 
	C101.087700,137.080322 100.076836,139.222061 100.010010,140.612076 
	C99.762634,145.758041 99.827057,150.925385 99.974274,156.078995 
	C100.007202,157.231949 100.851280,158.361740 101.321922,159.502213 
	C101.971992,159.415939 102.622070,159.329681 103.272141,159.243423 
	C103.272141,153.744705 103.272141,148.245987 103.272141,142.204224 
	C104.713966,142.945419 105.083763,143.019211 105.262550,143.244553 
	C109.085602,148.063553 112.887245,152.899521 117.151062,158.246994 
M195.495926,136.226883 
	C187.125046,136.603699 183.353241,140.294067 183.418365,148.043625 
	C183.478363,155.182617 187.416168,159.265610 194.374252,159.403519 
	C202.897629,159.572433 207.255722,156.094315 207.620300,148.832108 
	C208.017120,140.927597 204.437469,136.926590 195.495926,136.226883 
M171.647171,149.558945 
	C172.328094,148.952744 173.009003,148.346542 173.689911,147.740326 
	C172.833664,147.170731 172.000656,146.155701 171.117096,146.109589 
	C167.522369,145.922058 163.912140,146.031540 160.194458,146.031540 
	C161.433411,140.855881 162.754288,140.108582 168.466324,139.814850 
	C170.668915,139.701584 172.825912,138.701385 175.003677,138.105301 
	C172.846283,137.471008 170.698410,136.332687 168.529800,136.291733 
	C160.184189,136.134125 156.207520,139.973068 156.184143,147.722687 
	C156.160385,155.597153 160.079941,159.504501 168.275391,159.358139 
	C170.511597,159.318192 172.731598,158.369873 174.959030,157.838409 
	C172.689026,157.196732 170.445129,156.152649 168.143188,156.003311 
	C164.238968,155.749985 160.964432,155.147690 160.175995,149.619141 
	C163.960663,149.619141 167.379150,149.619141 171.647171,149.558945 
M49.557213,149.629410 
	C51.492321,149.629410 53.427429,149.629410 55.805634,149.629410 
	C55.805634,152.639465 55.667397,154.956253 55.884319,157.239288 
	C55.955494,157.988388 56.947971,158.649948 57.519150,159.351547 
	C58.099281,158.663773 59.172855,157.982956 59.182693,157.287109 
	C59.274216,150.813843 59.220478,144.337158 59.079346,137.864304 
	C59.066837,137.290741 58.138783,136.737152 56.618649,135.035522 
	C56.112068,139.329041 55.747200,142.421494 55.363850,145.670563 
	C51.330460,145.670563 47.292225,145.670563 43.005627,145.670563 
	C43.005627,143.345154 43.226952,141.330322 42.915470,139.401520 
	C42.751225,138.384445 41.657368,137.517471 40.983238,136.582733 
	C40.404598,137.459366 39.348026,138.323563 39.324841,139.214645 
	C39.173672,145.024506 39.172253,150.842178 39.327057,156.651825 
	C39.350075,157.515579 40.454212,158.350525 41.058189,159.198807 
	C41.706417,158.242752 42.768070,157.346039 42.915604,156.318115 
	C43.210033,154.266693 43.002876,152.143280 43.002876,149.628937 
	C45.322845,149.628937 46.953976,149.628937 49.557213,149.629410 
M89.921890,159.196823 
	C93.157425,159.063187 92.150917,157.133240 91.465256,155.435715 
	C89.407417,150.340958 87.515388,145.160492 85.096535,140.240677 
	C84.272545,138.564713 82.104889,136.580521 80.498596,136.533493 
	C78.926460,136.487457 76.616135,138.395508 75.802528,140.029678 
	C73.285332,145.085663 71.270218,150.397537 69.199776,155.664948 
	C68.789589,156.708527 68.999992,157.996048 68.924217,159.171066 
	C69.270081,159.398422 69.615944,159.625793 69.961807,159.853149 
	C72.739075,157.311752 73.709351,152.327911 79.218063,153.612015 
	C83.209633,154.542465 88.144958,152.694412 89.921890,159.196823 
M116.473244,81.289589 
	C121.033531,77.775467 122.396576,74.040062 120.162109,70.324509 
	C118.071640,66.848381 114.934479,65.261261 110.847733,66.459221 
	C106.743332,67.662338 104.310799,71.816124 105.261528,75.754929 
	C106.343521,80.237541 110.034950,82.288628 116.473244,81.289589 
z"/>
<path fill="#F1F3F4" opacity="1.000000" stroke="none" 
	d="
M13.523338,1.000000 
	C13.999708,66.687561 13.999416,132.375122 13.999562,198.531342 
	C9.675456,199.000000 5.350911,199.000000 1.030941,199.000000 
	C1.035515,132.999985 1.035515,66.999985 1.035515,1.000000 
	C5.062912,1.000000 9.054794,1.000000 13.523338,1.000000 
z"/>
<path fill="#F1F3F4" opacity="1.000000" stroke="none" 
	d="
M235.500000,199.000000 
	C235.000305,133.308456 235.000610,67.616905 235.000458,1.462676 
	C236.333328,1.000000 237.666672,1.000000 239.000000,1.000000 
	C239.000000,65.833336 238.994644,130.666672 239.023102,195.499985 
	C239.024063,197.680771 239.438095,199.923126 235.500000,199.000000 
z"/>
<path fill="#DA4170" opacity="1.000000" stroke="none" 
	d="
M136.730392,40.274849 
	C137.902176,42.536186 139.497833,44.565426 139.519638,46.611443 
	C139.714386,64.887100 139.606812,83.165779 139.649734,101.443420 
	C139.659241,105.495949 138.148758,108.573189 133.883881,108.638588 
	C129.609238,108.704155 127.986458,105.745796 127.999268,101.619484 
	C128.056488,83.175743 127.984695,64.731567 128.059662,46.287956 
	C128.082703,40.618217 130.683762,38.793728 136.730392,40.274849 
z"/>
<path fill="#DA406F" opacity="1.000000" stroke="none" 
	d="
M86.440857,71.999908 
	C86.441742,64.674583 86.394035,57.848797 86.458755,51.024075 
	C86.507072,45.929001 88.976746,42.689884 92.654182,43.079281 
	C97.431458,43.585129 98.142090,47.021553 98.123390,51.066227 
	C98.052574,66.381271 98.058472,81.696999 98.119522,97.012131 
	C98.135551,101.032143 97.557716,104.516739 92.624054,104.882729 
	C88.763519,105.169128 86.498672,102.247368 86.458252,96.971138 
	C86.395767,88.814491 86.440994,80.657028 86.440857,71.999908 
z"/>
<path fill="#6D6D6D" opacity="1.000000" stroke="none" 
	d="
M172.007965,99.235077 
	C170.868271,96.932487 169.392944,94.880051 169.356094,92.802094 
	C169.135330,80.355827 169.210419,67.903534 169.262314,55.453579 
	C169.282867,50.523010 171.481247,47.789474 175.228989,47.932468 
	C179.821213,48.107677 180.941025,51.194019 180.941437,55.097267 
	C180.942810,67.713440 181.010361,80.330193 180.907394,92.945534 
	C180.857590,99.048561 178.455933,100.758881 172.007965,99.235077 
z"/>
<path fill="#6F6F6F" opacity="1.000000" stroke="none" 
	d="
M65.971405,74.000397 
	C65.979790,69.839622 65.929413,66.174126 66.013535,62.511711 
	C66.093597,59.026031 67.787933,56.724266 71.414322,56.584778 
	C75.206963,56.438896 77.509636,58.593792 77.605705,62.295883 
	C77.808716,70.118713 77.792343,77.953033 77.619164,85.777168 
	C77.542252,89.251785 75.287270,91.424309 71.864052,91.480965 
	C68.126328,91.542839 66.057243,89.307755 65.999481,85.489571 
	C65.944054,81.826080 65.977203,78.161263 65.971405,74.000397 
z"/>
<path fill="#6B6B6B" opacity="1.000000" stroke="none" 
	d="
M157.315125,88.617744 
	C150.680969,89.515450 148.899521,88.104034 148.807663,82.101463 
	C148.721146,76.448357 148.788177,70.792732 148.805801,65.138268 
	C148.817307,61.446785 150.440674,58.916821 154.322830,58.830490 
	C158.498932,58.737629 160.180496,61.395924 160.202393,65.281509 
	C160.235199,71.102150 160.417007,76.934586 160.094330,82.737473 
	C159.987122,84.665543 158.521988,86.518097 157.315125,88.617744 
z"/>
<path fill="#484848" opacity="1.000000" stroke="none" 
	d="
M116.922058,157.989594 
	C112.887245,152.899521 109.085602,148.063553 105.262550,143.244553 
	C105.083763,143.019211 104.713966,142.945419 103.272141,142.204224 
	C103.272141,148.245987 103.272141,153.744705 103.272141,159.243423 
	C102.622070,159.329681 101.971992,159.415939 101.321922,159.502213 
	C100.851280,158.361740 100.007202,157.231949 99.974274,156.078995 
	C99.827057,150.925385 99.762634,145.758041 100.010010,140.612076 
	C100.076836,139.222061 101.087700,137.080322 102.126961,136.754013 
	C103.207840,136.414612 105.239037,137.513229 106.169678,138.580399 
	C109.006012,141.832870 111.482513,145.396667 114.162956,148.788834 
	C115.118172,149.997681 116.256371,151.061935 118.357300,153.313416 
	C118.815964,146.695160 119.171890,141.559479 119.527809,136.423782 
	C120.071114,136.398972 120.614418,136.374146 121.157722,136.349335 
	C121.568146,137.276337 122.314232,138.196320 122.333763,139.131485 
	C122.448364,144.619690 122.534386,150.116302 122.345329,155.600266 
	C122.221756,159.184921 120.495094,160.529602 116.922058,157.989594 
z"/>
<path fill="#494949" opacity="1.000000" stroke="none" 
	d="
M195.919662,136.227341 
	C204.437469,136.926590 208.017120,140.927597 207.620300,148.832108 
	C207.255722,156.094315 202.897629,159.572433 194.374252,159.403519 
	C187.416168,159.265610 183.478363,155.182617 183.418365,148.043625 
	C183.353241,140.294067 187.125046,136.603699 195.919662,136.227341 
M203.537140,151.574554 
	C203.674225,149.765381 204.059402,147.934067 203.900406,146.151291 
	C203.477066,141.404327 200.415695,139.858612 195.995407,139.806259 
	C191.584045,139.754013 187.868927,140.640869 187.170029,145.716965 
	C186.631958,149.624893 186.873734,153.526230 191.233490,155.457016 
	C195.168976,157.199936 200.320007,155.771530 203.537140,151.574554 
z"/>
<path fill="#4D4D4D" opacity="1.000000" stroke="none" 
	d="
M171.222412,149.589050 
	C167.379150,149.619141 163.960663,149.619141 160.175995,149.619141 
	C160.964432,155.147690 164.238968,155.749985 168.143188,156.003311 
	C170.445129,156.152649 172.689026,157.196732 174.959030,157.838409 
	C172.731598,158.369873 170.511597,159.318192 168.275391,159.358139 
	C160.079941,159.504501 156.160385,155.597153 156.184143,147.722687 
	C156.207520,139.973068 160.184189,136.134125 168.529800,136.291733 
	C170.698410,136.332687 172.846283,137.471008 175.003677,138.105286 
	C172.825912,138.701385 170.668915,139.701584 168.466324,139.814850 
	C162.754288,140.108582 161.433411,140.855881 160.194458,146.031540 
	C163.912140,146.031540 167.522369,145.922058 171.117096,146.109589 
	C172.000656,146.155701 172.833664,147.170731 173.689911,147.740326 
	C173.009003,148.346542 172.328094,148.952744 171.222412,149.589050 
z"/>
<path fill="#4E4E4E" opacity="1.000000" stroke="none" 
	d="
M49.071159,149.629181 
	C46.953976,149.628937 45.322845,149.628937 43.002876,149.628937 
	C43.002876,152.143280 43.210033,154.266693 42.915604,156.318115 
	C42.768070,157.346039 41.706417,158.242752 41.058189,159.198807 
	C40.454212,158.350525 39.350075,157.515579 39.327057,156.651825 
	C39.172253,150.842178 39.173672,145.024506 39.324841,139.214645 
	C39.348026,138.323563 40.404598,137.459366 40.983238,136.582733 
	C41.657368,137.517471 42.751225,138.384445 42.915470,139.401520 
	C43.226952,141.330322 43.005627,143.345154 43.005627,145.670563 
	C47.292225,145.670563 51.330460,145.670563 55.363850,145.670563 
	C55.747200,142.421494 56.112068,139.329041 56.618649,135.035522 
	C58.138783,136.737152 59.066837,137.290741 59.079346,137.864304 
	C59.220478,144.337158 59.274216,150.813843 59.182693,157.287109 
	C59.172855,157.982956 58.099281,158.663773 57.519146,159.351547 
	C56.947971,158.649948 55.955494,157.988388 55.884319,157.239288 
	C55.667397,154.956253 55.805634,152.639465 55.805634,149.629410 
	C53.427429,149.629410 51.492321,149.629410 49.071159,149.629181 
z"/>
<path fill="#4D4D4D" opacity="1.000000" stroke="none" 
	d="
M89.618271,159.010162 
	C88.144958,152.694412 83.209633,154.542465 79.218063,153.612015 
	C73.709351,152.327911 72.739075,157.311752 69.961807,159.853149 
	C69.615944,159.625793 69.270081,159.398422 68.924217,159.171066 
	C68.999992,157.996048 68.789589,156.708527 69.199776,155.664948 
	C71.270218,150.397537 73.285332,145.085663 75.802528,140.029678 
	C76.616135,138.395508 78.926460,136.487457 80.498596,136.533493 
	C82.104889,136.580521 84.272545,138.564713 85.096535,140.240677 
	C87.515388,145.160492 89.407417,150.340958 91.465256,155.435715 
	C92.150917,157.133240 93.157425,159.063187 89.618271,159.010162 
M80.411835,139.916412 
	C78.939095,143.373871 77.466354,146.831329 75.993629,150.288788 
	C78.878494,150.250092 81.763763,150.224991 84.647133,150.137177 
	C84.811401,150.132172 84.960022,149.613876 85.307167,148.991730 
	C83.966309,146.221420 82.528412,143.250626 80.411835,139.916412 
z"/>
<path fill="#D84774" opacity="1.000000" stroke="none" 
	d="
M116.110306,81.435410 
	C110.034950,82.288628 106.343521,80.237541 105.261528,75.754929 
	C104.310799,71.816124 106.743332,67.662338 110.847733,66.459221 
	C114.934479,65.261261 118.071640,66.848381 120.162109,70.324509 
	C122.396576,74.040062 121.033531,77.775467 116.110306,81.435410 
z"/>
<path fill="#282828" opacity="1.000000" stroke="none" 
	d="
M140.958878,158.895142 
	C140.310547,157.688507 139.157501,156.504242 139.102814,155.271271 
	C138.886368,150.392212 139.013901,145.497894 139.013901,140.023834 
	C136.730148,140.023834 134.824951,140.023834 132.488693,139.563812 
	C135.189499,139.053711 138.321350,139.003647 141.304718,139.408981 
	C141.090439,146.207962 141.024658,152.551559 140.958878,158.895142 
z"/>
<path fill="#616161" opacity="1.000000" stroke="none" 
	d="
M141.453217,138.953583 
	C138.321350,139.003647 135.189499,139.053711 132.044342,139.513000 
	C131.877777,138.771164 131.724518,137.620102 131.571259,136.469040 
	C137.920547,136.803452 144.269836,137.137863 150.028915,137.704834 
	C147.276260,138.289627 145.113831,138.641830 142.698792,138.986847 
	C142.115067,138.976868 141.784058,138.968185 141.453217,138.953583 
z"/>
<path fill="#5C5C5C" opacity="1.000000" stroke="none" 
	d="
M141.304718,139.408997 
	C141.784058,138.968185 142.115067,138.976868 142.779297,139.174286 
	C143.112366,139.368896 142.975327,139.752289 142.975327,139.752289 
	C142.853653,144.357346 142.797012,148.965515 142.577072,153.565872 
	C142.493484,155.314163 142.034378,157.044510 141.352631,158.839081 
	C141.024658,152.551559 141.090439,146.207962 141.304718,139.408997 
z"/>
<path fill="#282828" opacity="1.000000" stroke="none" 
	d="
M143.400269,139.742538 
	C142.975327,139.752289 143.112366,139.368896 143.031876,139.181458 
	C145.113831,138.641830 147.276260,138.289627 149.880127,137.996506 
	C148.156097,138.614670 145.990646,139.173721 143.400269,139.742538 
z"/>
<path fill="#F6F6F6" opacity="1.000000" stroke="none" 
	d="
M203.353851,151.940430 
	C200.320007,155.771530 195.168976,157.199936 191.233490,155.457016 
	C186.873734,153.526230 186.631958,149.624893 187.170029,145.716965 
	C187.868927,140.640869 191.584045,139.754013 195.995407,139.806259 
	C200.415695,139.858612 203.477066,141.404327 203.900406,146.151291 
	C204.059402,147.934067 203.674225,149.765381 203.353851,151.940430 
z"/>
<path fill="#DDDDDD" opacity="1.000000" stroke="none" 
	d="
M80.751175,140.098114 
	C82.528412,143.250626 83.966309,146.221420 85.307167,148.991730 
	C84.960022,149.613876 84.811401,150.132172 84.647133,150.137177 
	C81.763763,150.224991 78.878494,150.250092 75.993622,150.288788 
	C77.466354,146.831329 78.939095,143.373871 80.751175,140.098114 
z"/>
</svg>